<?xml version="1.0" standalone="no"?>
<!DOCTYPE svg PUBLIC "-//W3C//DTD SVG 20010904//EN"
 "http://www.w3.org/TR/2001/REC-SVG-20010904/DTD/svg10.dtd">
<svg version="1.0" xmlns="http://www.w3.org/2000/svg"
 width="2019.000000pt" height="2019.000000pt" viewBox="0 0 2019.000000 2019.000000"
 preserveAspectRatio="xMidYMid meet">
<metadata>
Created by potrace 1.14, written by Peter Selinger 2001-2017
</metadata>
<g transform="translate(0.000000,2019.000000) scale(0.100000,-0.100000)"
fill="#000000" stroke="none">
<path d="M8908 20186 c-1 -2 -61 -6 -133 -10 -71 -3 -150 -8 -175 -10 -25 -2
-82 -7 -127 -11 -46 -3 -93 -8 -105 -10 -13 -3 -58 -8 -101 -11 -43 -3 -84 -7
-90 -8 -7 -2 -34 -6 -62 -10 -27 -4 -95 -14 -150 -22 -55 -9 -113 -17 -130
-20 -16 -2 -41 -6 -55 -9 -14 -2 -36 -7 -50 -10 -14 -2 -41 -7 -60 -10 -19 -3
-69 -13 -110 -21 -41 -9 -88 -18 -105 -21 -16 -2 -95 -20 -175 -39 -80 -19
-156 -37 -170 -40 -14 -2 -32 -7 -40 -10 -8 -3 -58 -17 -110 -30 -52 -14 -102
-27 -110 -29 -8 -3 -37 -11 -65 -19 -321 -92 -892 -299 -1100 -399 -16 -8 -84
-39 -150 -68 -362 -161 -863 -438 -1240 -688 -188 -124 -612 -432 -635 -461
-3 -3 -21 -17 -40 -30 -19 -13 -37 -27 -40 -30 -3 -3 -32 -28 -65 -55 -33 -27
-78 -65 -100 -85 -23 -19 -70 -60 -105 -90 -88 -76 -212 -190 -315 -290 -363
-351 -703 -739 -985 -1123 -202 -274 -431 -632 -605 -942 -72 -129 -253 -489
-300 -595 -15 -36 -41 -93 -56 -128 -55 -120 -198 -488 -254 -652 -51 -149
-170 -544 -179 -595 -2 -11 -18 -74 -35 -140 -26 -101 -73 -313 -96 -430 -11
-59 -46 -260 -50 -290 -3 -16 -7 -43 -9 -60 -3 -16 -8 -52 -12 -80 -3 -27 -8
-58 -10 -69 -2 -10 -6 -44 -9 -75 -3 -31 -10 -90 -15 -131 -14 -111 -23 -218
-35 -388 -24 -327 -24 -957 0 -1252 2 -25 7 -81 10 -125 6 -83 11 -140 21
-214 2 -24 7 -62 9 -85 2 -22 7 -59 10 -81 3 -22 8 -58 10 -80 3 -22 7 -51 10
-65 3 -14 7 -44 10 -68 7 -58 53 -321 71 -407 16 -70 19 -85 30 -140 86 -426
310 -1129 480 -1510 7 -16 39 -88 70 -160 59 -133 235 -489 300 -605 138 -250
212 -372 389 -640 157 -238 415 -585 559 -751 17 -19 51 -59 76 -89 52 -61 40
-47 150 -170 66 -74 241 -258 326 -344 84 -84 310 -295 408 -381 38 -33 74
-65 80 -71 74 -71 455 -368 680 -529 436 -312 1067 -672 1541 -879 61 -26 118
-52 127 -57 9 -4 79 -33 155 -64 76 -31 147 -60 158 -65 73 -32 425 -155 630
-218 111 -35 150 -46 230 -68 89 -24 386 -99 435 -110 59 -13 242 -51 280 -59
47 -9 327 -56 395 -65 44 -6 91 -13 105 -15 14 -2 52 -7 85 -10 33 -4 71 -8
85 -10 14 -2 75 -9 135 -15 61 -5 133 -12 160 -15 277 -27 1074 -27 1340 0 22
2 74 7 115 10 41 4 86 8 100 10 14 2 56 6 93 10 37 3 76 8 85 10 9 1 46 6 82
10 36 4 74 9 85 11 11 2 38 6 60 9 22 3 51 7 65 10 14 2 40 7 58 10 114 18
253 43 329 59 40 9 87 18 105 21 18 4 80 17 138 31 58 14 116 28 130 30 14 3
50 12 80 20 30 9 66 18 79 21 14 2 27 6 31 8 3 2 41 -56 85 -128 143 -240 390
-612 482 -727 6 -8 53 -69 104 -135 619 -808 1384 -1361 2237 -1619 67 -21
130 -39 140 -41 9 -2 46 -12 82 -20 36 -9 72 -18 80 -20 26 -6 224 -44 260
-49 78 -13 168 -25 225 -32 33 -3 68 -8 78 -10 57 -10 288 -19 527 -19 338 0
484 10 780 51 305 43 730 159 975 268 301 134 520 260 740 427 94 71 109 83
215 179 470 420 829 986 1058 1665 76 224 145 495 177 690 3 17 7 41 10 55 5
25 9 53 19 125 17 119 21 157 33 310 9 114 8 414 -2 423 -3 4 -301 7 -661 8
-591 1 -654 -1 -655 -15 -1 -28 -9 -75 -19 -118 -5 -22 -13 -58 -16 -79 -20
-128 -138 -411 -231 -551 -206 -316 -521 -529 -884 -598 -329 -62 -697 -28
-1003 92 -155 61 -367 176 -471 255 -239 183 -511 445 -656 633 -13 17 -32 39
-42 50 -49 53 -397 533 -397 547 0 3 39 36 88 74 116 91 292 239 391 329 158
143 221 203 386 369 170 170 298 308 425 455 30 35 60 69 65 75 6 6 28 34 49
61 22 28 44 55 50 60 10 8 130 163 241 310 307 405 657 995 890 1500 46 99
155 353 155 361 0 3 8 24 19 47 70 157 285 798 306 914 2 16 10 44 16 63 9 30
43 161 54 210 54 238 80 368 114 577 30 179 34 207 46 298 4 28 8 61 10 75 2
14 7 54 10 90 3 36 8 76 10 90 2 14 7 63 10 110 4 47 8 101 10 120 4 37 13
187 20 335 11 224 6 721 -10 955 -13 193 -25 328 -30 360 -2 14 -7 57 -10 95
-8 90 -12 123 -26 215 -6 41 -12 84 -14 95 -5 39 -16 111 -25 165 -5 30 -12
71 -15 90 -3 19 -8 42 -10 50 -3 8 -7 32 -9 54 -3 21 -8 46 -10 55 -3 9 -7 27
-10 41 -82 452 -273 1085 -479 1590 -51 124 -73 175 -129 300 -74 164 -274
556 -345 675 -16 28 -32 57 -36 65 -4 8 -25 44 -47 79 -22 34 -40 64 -40 66 0
7 -163 260 -246 383 -123 181 -447 611 -483 642 -4 3 -26 30 -51 60 -25 30
-47 57 -50 60 -3 3 -34 39 -70 80 -109 127 -167 187 -395 415 -195 196 -259
256 -444 420 -49 44 -151 129 -190 161 -13 10 -38 31 -55 45 -48 39 -298 232
-326 251 -14 10 -43 31 -65 47 -153 114 -609 410 -775 503 -25 14 -99 56 -165
93 -268 151 -679 345 -1018 481 -287 116 -760 275 -977 330 -8 2 -94 24 -190
49 -96 25 -242 59 -325 76 -82 17 -159 33 -170 35 -29 7 -422 72 -475 79 -87
12 -106 14 -185 24 -44 6 -114 13 -155 16 -41 4 -86 8 -100 10 -14 2 -72 7
-128 10 -57 4 -125 9 -150 11 -57 5 -829 14 -834 10z m792 -1769 c25 -3 79 -8
120 -11 110 -10 197 -20 270 -30 19 -3 53 -8 75 -11 22 -3 63 -10 90 -15 28
-5 61 -11 75 -14 72 -12 113 -20 190 -38 47 -11 93 -21 102 -23 115 -24 417
-121 577 -184 130 -52 349 -157 455 -217 81 -46 252 -151 271 -166 6 -5 57
-43 115 -85 58 -42 146 -110 195 -152 88 -73 325 -305 395 -386 252 -289 451
-588 635 -950 193 -382 324 -724 464 -1210 21 -75 110 -434 118 -475 2 -14 8
-41 13 -60 5 -19 21 -98 35 -175 15 -77 28 -151 31 -165 7 -40 23 -132 30
-174 3 -21 8 -48 10 -60 2 -11 6 -41 9 -66 3 -25 9 -58 12 -75 3 -16 7 -43 9
-60 1 -16 9 -84 18 -150 8 -66 18 -145 21 -175 4 -30 8 -66 10 -80 2 -14 7
-56 10 -95 4 -38 8 -88 10 -110 2 -22 7 -71 10 -110 3 -38 8 -92 10 -120 4
-48 9 -119 20 -310 3 -49 7 -124 10 -165 12 -205 19 -550 19 -975 0 -654 -15
-1035 -59 -1545 -2 -25 -6 -76 -10 -115 -3 -38 -8 -86 -10 -105 -2 -19 -7 -64
-10 -100 -4 -36 -10 -92 -15 -125 -5 -33 -12 -87 -15 -120 -6 -58 -11 -94 -20
-145 -2 -14 -7 -45 -10 -70 -12 -91 -36 -239 -66 -400 -38 -207 -34 -184 -65
-320 -14 -63 -27 -124 -29 -135 -18 -101 -120 -464 -189 -675 -71 -218 -248
-670 -261 -670 -2 0 -46 62 -98 138 -122 178 -362 500 -397 532 -3 3 -43 50
-90 105 -200 235 -457 486 -668 650 -7 6 -18 15 -25 21 -7 6 -55 42 -107 80
-294 217 -630 399 -961 522 -221 82 -523 168 -699 198 -25 4 -47 8 -50 9 -3 1
-27 5 -55 10 -27 4 -59 9 -70 11 -11 2 -40 7 -65 10 -25 3 -52 7 -60 9 -8 2
-44 7 -80 10 -36 3 -76 8 -90 10 -14 2 -65 6 -115 10 -49 3 -117 8 -150 10
-74 6 -593 6 -655 1 -25 -3 -85 -7 -135 -11 -127 -8 -177 -13 -269 -25 -117
-15 -145 -19 -206 -30 -30 -5 -68 -11 -85 -14 -53 -8 -239 -46 -280 -57 -22
-6 -51 -13 -65 -15 -88 -16 -433 -124 -605 -191 -131 -51 -305 -129 -425 -192
-58 -30 -115 -59 -127 -65 -13 -6 -23 -14 -23 -18 0 -5 -5 -8 -11 -8 -34 0
-465 -297 -545 -375 -8 -8 62 -156 258 -550 149 -297 272 -542 274 -544 2 -2
34 9 71 24 252 101 507 148 818 148 117 0 258 -8 325 -18 184 -28 315 -57 444
-100 79 -25 255 -94 271 -105 6 -4 48 -27 95 -50 73 -37 273 -160 320 -197
153 -118 249 -202 361 -313 169 -169 226 -233 415 -475 149 -190 447 -664 609
-970 26 -49 51 -94 55 -100 4 -5 58 -107 119 -226 l111 -215 -98 -24 c-53 -13
-101 -25 -107 -26 -138 -34 -366 -76 -480 -89 -27 -3 -66 -7 -85 -9 -94 -12
-252 -25 -360 -31 -95 -5 -615 -5 -685 0 -332 24 -362 27 -650 70 -33 5 -176
33 -315 62 -63 13 -256 68 -368 103 -318 103 -660 265 -910 431 -41 27 -75 49
-78 49 -2 0 -12 6 -21 14 -10 8 -64 49 -120 91 -652 486 -1159 1239 -1503
2230 -44 129 -172 557 -184 619 -3 11 -16 68 -30 126 -26 112 -67 303 -91 435
-29 154 -44 240 -50 280 -3 22 -10 65 -15 95 -5 30 -12 78 -15 105 -4 28 -8
57 -10 65 -3 8 -7 42 -10 75 -3 33 -8 71 -10 85 -3 14 -7 48 -10 75 -3 28 -8
66 -10 85 -3 19 -8 58 -10 85 -5 58 -13 141 -20 205 -2 25 -7 81 -10 125 -4
44 -8 100 -10 125 -4 43 -6 79 -20 295 -21 323 -28 625 -28 1130 0 417 7 800
18 945 2 30 7 111 10 180 4 69 8 145 10 170 2 25 6 83 10 130 3 47 7 105 10
130 2 25 7 74 10 110 15 168 18 195 30 300 27 226 37 304 45 355 5 33 12 80
15 105 3 25 14 97 25 160 28 160 29 169 40 225 5 28 11 61 14 75 3 20 24 119
51 246 3 18 62 273 70 304 34 141 142 495 204 670 189 539 478 1089 754 1440
7 8 28 35 47 60 133 173 354 403 529 550 30 25 59 50 65 56 58 55 313 228 476
323 314 183 749 353 1100 430 25 6 74 17 110 25 36 8 81 17 100 20 19 3 46 8
60 10 92 17 297 46 360 51 41 4 89 9 105 11 17 2 84 7 150 10 66 4 122 8 124
10 5 4 705 -4 761 -9z"/>
</g>
</svg>
